<?xml version="1.0" encoding="UTF-8" standalone="no"?>
<!-- Created with Inkscape (http://www.inkscape.org/) -->

<svg
   width="143.98177mm"
   height="68.225327mm"
   viewBox="0 0 143.98177 68.225327"
   version="1.1"
   id="svg1"
   xml:space="preserve"
   xmlns="http://www.w3.org/2000/svg"
   xmlns:svg="http://www.w3.org/2000/svg"><defs
     id="defs1" /><g
     id="layer1"
     transform="translate(-33.983145,-67.653418)"><g
       id="g20"
       transform="translate(-8.8665324)"><path
         id="path13"
         style="display:inline;fill:#000000;fill-opacity:1;stroke:none;stroke-width:5;stroke-linecap:round;stroke-linejoin:round;stroke-dasharray:none;stroke-opacity:1"
         d="m 161.11626,103.44071 c -6.34482,0.51204 -12.67201,0.93017 -18.93269,1.20975 -26.29971,1.17445 -38.10243,3.20078 -46.736166,5.32991 -5.061245,1.24813 -9.18153,2.58382 -14.469918,3.81475 0.182353,0.0875 0.367581,0.17473 0.555005,0.262 9.896807,4.60848 28.140269,2.26779 34.219619,1.43506 17.46875,-2.39283 32.99178,-6.03736 32.99178,-6.03736 4.25603,-0.91751 8.43086,-3.11434 12.37237,-6.01411 z"
         transform="translate(0.52916663)" /><path
         id="path18"
         style="display:inline;fill:#000000;fill-opacity:1;stroke:none;stroke-width:5;stroke-linecap:round;stroke-linejoin:round;stroke-dasharray:none;stroke-opacity:1"
         d="m 70.049988,99.065271 c 0.287329,4.325779 1.452262,7.367159 3.697965,9.812839 8.238736,-1.46187 13.028083,-3.21923 20.197734,-4.98729 9.033333,-2.22767 21.417263,-4.320969 47.956763,-5.506128 8.93037,-0.398797 18.03274,-1.085586 27.1539,-1.929081 2.95955,-3.017692 5.67976,-6.243085 8.07134,-9.338965 -2.42584,0.295893 -4.75779,0.571214 -6.97322,0.822689 -18.17801,2.063396 -16.93922,3.829991 -56.13094,4.97489 -15.77867,0.460939 -29.637685,3.254868 -43.973542,6.151046 z"
         transform="translate(0.52916663)" /><path
         id="path20"
         style="display:inline;fill:#000000;fill-opacity:1;stroke:none;stroke-width:5;stroke-linecap:round;stroke-linejoin:round;stroke-dasharray:none;stroke-opacity:1"
         d="m 182.14806,80.170817 c 1.56197,-2.305627 2.8278,-4.316713 3.74034,-5.818249 0.82395,-1.355776 0.37205,-2.296427 -0.95085,-2.301669 -0.18899,-7.49e-4 -0.39575,0.01739 -0.61908,0.05633 -6.67747,1.164342 -22.84268,3.738135 -40.31486,4.714957 -14.50482,0.810925 -31.78736,-1.355329 -39.30251,-0.3545 -14.131639,1.881982 -25.508957,4.734633 -30.63327,6.141227 -1.630582,0.447586 -3.069948,2.210449 -3.261299,3.891235 -0.157384,1.382428 -0.323693,2.759143 -0.465605,4.124297 -0.07115,0.68449 -0.132351,1.346996 -0.182934,1.988509 13.924721,-2.816845 27.770793,-5.501747 43.682088,-5.966561 39.00222,-1.139364 37.00124,-2.8254 55.60539,-4.937167 3.90364,-0.443104 8.18106,-0.963643 12.70259,-1.538407 z"
         transform="translate(0.52916663)" /><circle
         style="display:inline;fill:#000000;stroke-width:0.222951"
         id="path1"
         cx="152.70863"
         cy="127.48518"
         r="8.3935509" /><path
         style="baseline-shift:baseline;display:inline;overflow:visible;opacity:1;vector-effect:none;stroke-linecap:round;stroke-linejoin:round;enable-background:accumulate;stop-color:#000000;stop-opacity:1"
         d="m 53.697266,67.679687 c -1.403795,-0.07765 -2.789601,0.03131 -4.072266,0.138672 -2.56533,0.214725 -4.667969,0.644532 -4.667969,0.644532 a 2.6324999,2.6324999 0 0 0 -2.054687,3.103515 2.6324999,2.6324999 0 0 0 3.105468,2.054688 c 0,0 1.833654,-0.370571 4.056641,-0.556641 2.222988,-0.18607 4.887896,0.03666 5.572266,0.359375 3.247692,1.531445 4.875582,4.525385 5.804687,9.126953 0.929106,4.601569 0.920933,10.514647 0.902344,16.5625 -0.01859,6.047849 -0.0492,12.233919 1.134766,17.710939 1.183965,5.47702 3.822663,10.50698 9.072265,12.98242 5.286825,2.493 12.612341,2.48426 20.957031,1.57813 8.344688,-0.90614 17.664718,-2.87747 26.423828,-5.09961 17.51823,-4.4443 32.8125,-9.91407 32.8125,-9.91407 a 2.6324999,2.6324999 0 0 0 1.5918,-3.36328 2.6324999,2.6324999 0 0 0 -3.36524,-1.59375 c 0,0 -15.10567,5.39684 -32.33398,9.76758 -8.61415,2.18537 -17.75289,4.10608 -25.697267,4.96875 -7.944373,0.86267 -14.738435,0.4978 -18.142578,-1.10742 -3.441365,-1.62277 -5.171138,-4.70263 -6.171875,-9.33203 -1.000737,-4.62941 -1.034179,-10.54576 -1.015625,-16.582034 0.01855,-6.036271 0.08851,-12.189391 -1.007813,-17.61914 -1.096323,-5.42975 -3.595975,-10.431098 -8.720703,-12.847657 -1.357723,-0.640232 -2.779799,-0.904773 -4.183593,-0.982422 z"
         id="path7" /></g></g></svg>
